<?xml version="1.0" encoding="UTF-8" standalone="no" ?>
<!DOCTYPE svg PUBLIC "-//W3C//DTD SVG 1.1//EN" "http://www.w3.org/Graphics/SVG/1.1/DTD/svg11.dtd">
<svg xmlns="http://www.w3.org/2000/svg" xmlns:xlink="http://www.w3.org/1999/xlink" version="1.1" width="5000" height="5000" viewBox="0 0 5000 5000" xml:space="preserve">
<desc>Created with Fabric.js 5.3.0</desc>
<defs>
</defs>
<g transform="matrix(1 0 0 1 2777.302418234 2550.6489994592)" id="PkzTk6TxqLLkVdt5xLhLb"  >
<path style="stroke: rgb(0,0,0); stroke-width: 1; stroke-dasharray: none; stroke-linecap: butt; stroke-dashoffset: 0; stroke-linejoin: miter; stroke-miterlimit: 4; fill: rgb(255,255,255); fill-opacity: 0; fill-rule: nonzero; opacity: 1;"  transform=" translate(0, 0)" d="M -1102.16112 -2065.00811 L -502.16112 -2434.7755500000003 L -309.61965999999995 -2185.93834 L 211.3105700000001 -1390.5895 L 608.9849900000002 -635.80313 L 778.7524300000001 -207.62574 L 892.7059200000001 541.21147 L 974.2541500000001 1171.71444 L 1102.1611300000002 1469.38886 L 174.2541500000002 1998.59384 L 411.4634500000002 2434.77556 L 627.7425200000002 2313.84533 L 681.2308900000003 2127.79882 L 313.78903000000025 1469.38887 L 567.2774000000003 1336.83073 L 439.3704200000003 599.6214299999999" stroke-linecap="round" />
</g>
<g transform="matrix(1 0 0 1 2310.0923515241 2518.6046511628)" id="8gkVYlzzm7rBcNf8GNGs7"  >
<path style="stroke: rgb(0,0,0); stroke-width: 1; stroke-dasharray: none; stroke-linecap: butt; stroke-dashoffset: 0; stroke-linejoin: miter; stroke-miterlimit: 4; fill: rgb(255,255,255); fill-opacity: 0; fill-rule: nonzero; opacity: 1;"  transform=" translate(0, 0)" d="M -635.45106 -2030.63818 L -357.5722 -1313.0611099999999 L -136.64197000000001 -900.1351999999999 L 135.45105 -458.2747299999999 L 189.90764000000001 -221.0654299999999 L 477.31151 495.4840600000001 L 535.45104 958.2747600000001 L 144.75337000000002 1185.15415 L 433.12546000000003 1698.0800600000002 L 635.45104 2030.6382000000003" stroke-linecap="round" />
</g>
<g transform="matrix(1 0 0 1 2668.5305290466 2286.0465116279)" id="r3sSnW1jEvGYVG8ZOb4uU"  >
<path style="stroke: rgb(0,0,0); stroke-width: 1; stroke-dasharray: none; stroke-linecap: butt; stroke-dashoffset: 0; stroke-linejoin: miter; stroke-miterlimit: 4; fill: rgb(255,255,255); fill-opacity: 0; fill-rule: nonzero; opacity: 1;"  transform=" translate(0, 0)" d="M 72.09302 1925.98702 L 427.90697 1737.61493 L 365.11627 1639.94051 L 348.8372 1460.8707399999998 L 227.90697 1219.0102699999998 L 160.46510999999998 768.8750599999998 L 127.90696999999997 197.80961999999988 L 53.488369999999975 -117.44187000000011 L -200.00000000000003 -631.3953600000001 L -427.90698000000003 -1487.47973 L -427.90698000000003 -1563.19633 L -260.32753 -1829.95545 L -200.00000000000003 -1925.98702" stroke-linecap="round" />
</g>
<g transform="matrix(1 0 0 1 2635.9723895117 917.1714440238)" id="MBQymflD0M9DDM44NqAEP"  >
<path style="stroke: rgb(0,0,0); stroke-width: 1; stroke-dasharray: none; stroke-linecap: butt; stroke-dashoffset: 0; stroke-linejoin: miter; stroke-miterlimit: 4; fill: rgb(255,255,255); fill-opacity: 0; fill-rule: nonzero; opacity: 1;"  transform=" translate(0, 0)" d="M -227.90698 -468.73986 L -172.09303 -447.80963 L 155.81394999999998 -15.251490000000047 L 227.90696999999997 110.32990999999996 L 218.60463999999996 345.21362999999997 L 199.99998999999997 412.65549 L 95.34882999999996 401.298 L -227.90698000000003 468.73986" stroke-linecap="round" />
</g>
<g transform="matrix(1 0 0 1 2431.071226721 1402.1903731747)" id="iwX0h5YgJDHMCLzSl2LCo"  >
<path style="stroke: rgb(0,0,0); stroke-width: 1; stroke-dasharray: none; stroke-linecap: butt; stroke-dashoffset: 0; stroke-linejoin: miter; stroke-miterlimit: 4; fill: rgb(255,255,255); fill-opacity: 0; fill-rule: nonzero; opacity: 1;"  transform=" translate(0, 0)" d="M -23.50581 30.23256 L 23.505819999999996 -30.23256" stroke-linecap="round" />
</g>
<g transform="matrix(1 0 0 1 3081.321226721 2190.0486749594)" id="iFGKrkhWlv5voEAxw0nPr"  >
<path style="stroke: rgb(0,0,0); stroke-width: 1; stroke-dasharray: none; stroke-linecap: butt; stroke-dashoffset: 0; stroke-linejoin: miter; stroke-miterlimit: 4; fill: rgb(255,255,255); fill-opacity: 0; fill-rule: nonzero; opacity: 1;"  transform=" translate(0, 0)" d="M -247.67442 -862.27691 L -194.18605 -803.63738 L -22.09303 -483.20715 L -33.72094 -266.92808 L 212.79068999999998 140.04865999999998 L 261.62789999999995 559.9513099999999 L 247.67440999999997 608.78852 L 91.86045999999996 839.02108 L 15.616269999999957 862.27689 L -163.95350000000005 839.02108 L -261.62792 732.0443399999999" stroke-linecap="round" />
</g>
<g transform="matrix(1 0 0 1 2875.5072732326 3045.3488372093)" id="AzeECZ1vQm5zA1t2pIDWq"  >
<path style="stroke: rgb(0,0,0); stroke-width: 1; stroke-dasharray: none; stroke-linecap: butt; stroke-dashoffset: 0; stroke-linejoin: miter; stroke-miterlimit: 4; fill: rgb(255,255,255); fill-opacity: 0; fill-rule: nonzero; opacity: 1;"  transform=" translate(0, 0)" d="M -44.18605 13.95349 L -11.12791 -13.95349 L 44.18604 -13.95349" stroke-linecap="round" />
</g>
<g transform="matrix(1 0 0 1 3480.4084360233 2762.7906976744)" id="ThgxoVW_DjSJeENMMo7Fj"  >
<path style="stroke: rgb(0,0,0); stroke-width: 1; stroke-dasharray: none; stroke-linecap: butt; stroke-dashoffset: 0; stroke-linejoin: miter; stroke-miterlimit: 4; fill: rgb(255,255,255); fill-opacity: 0; fill-rule: nonzero; opacity: 1;"  transform=" translate(0, 0)" d="M -136.9593 -3.48837 L -114.20349000000002 17.441860000000002 L 136.95929999999998 -17.441859999999995" stroke-linecap="round" />
</g>
<g transform="matrix(1 0 0 1 3471.106110442 2783.1395348837)" id="q8Fm9T87eUlSFoOIULPJR"  >
<path style="stroke: rgb(0,0,0); stroke-width: 1; stroke-dasharray: none; stroke-linecap: butt; stroke-dashoffset: 0; stroke-linejoin: miter; stroke-miterlimit: 4; fill: rgb(255,255,255); fill-opacity: 0; fill-rule: nonzero; opacity: 1;"  transform=" translate(0, 0)" d="M -146.76163 20.34884 L 146.76163 -20.348830000000003" stroke-linecap="round" />
</g>
<g transform="matrix(1 0 0 1 2942.404799407 2109.1671173607)" id="usNSewJDTbcr6TZ8MYik8"  >
<path style="stroke: rgb(0,0,0); stroke-width: 1; stroke-dasharray: none; stroke-linecap: butt; stroke-dashoffset: 0; stroke-linejoin: miter; stroke-miterlimit: 4; fill: rgb(255,255,255); fill-opacity: 0; fill-rule: nonzero; opacity: 1;"  transform=" translate(0, 0)" d="M -442.4048 195.34884 L -201.78125000000003 139.53489 L -22.211480000000023 80.88156 L 442.4048 -195.34883000000002" stroke-linecap="round" />
</g>
<g transform="matrix(1 0 0 1 3238.5479709071 2337.9799891833)" id="vyxn2RlruoGqS0de1Qc3E"  >
<path style="stroke: rgb(0,0,0); stroke-width: 1; stroke-dasharray: none; stroke-linecap: butt; stroke-dashoffset: 0; stroke-linejoin: miter; stroke-miterlimit: 4; fill: rgb(255,255,255); fill-opacity: 0; fill-rule: nonzero; opacity: 1;"  transform=" translate(0, 0)" d="M -318.35465 -147.93131 L -256.06395 87.46620000000001 L -176.99417999999997 147.93132000000003 L 318.35466 6.070850000000036" stroke-linecap="round" />
</g>
<g transform="matrix(1 0 0 1 3417.3677383489 3089.9338831801)" id="hfqQbHE_khg6qi1IwxjCW"  >
<path style="stroke: rgb(0,0,0); stroke-width: 1; stroke-dasharray: none; stroke-linecap: butt; stroke-dashoffset: 0; stroke-linejoin: miter; stroke-miterlimit: 4; fill: rgb(255,255,255); fill-opacity: 0; fill-rule: nonzero; opacity: 1;"  transform=" translate(0, 0)" d="M -251.16279 -59.03853 L -211.62790999999999 -3.7521600000000035 L -200 59.03854 L 251.16278999999997 7.8757499999999965" stroke-linecap="round" />
</g>
</svg>